<svg width="76" height="76" viewBox="0 0 76 76" fill="none" xmlns="http://www.w3.org/2000/svg">
<path d="M72.5061 51.965C69.1663 49.9024 63.4452 53.4744 60.5255 50.5547C58.6741 48.7033 43.6704 32.5765 37.069 26.2918C30.4676 20.007 23.0892 14.3555 21.3644 12.8039C20.3574 11.8982 23.636 5.30942 20.862 2.53542C17.9191 -0.405363 13.8616 -0.734696 10.9208 2.20608C9.11366 4.01108 9.94755 7.02997 8.67878 7.87019C7.41 8.71041 4.009 9.11575 2.20611 10.9207C-0.734667 13.8594 -0.308223 18.696 3.04211 21.1596C6.46422 23.6761 11.5984 20.9591 13.6124 21.5629C16.359 22.3862 23.6064 30.4781 33.345 40.1871C42.4291 49.2437 49.9848 59.5481 50.7617 60.4221C52.3724 62.2334 47.6414 68.3746 52.1719 73.4096C54.9543 76.5003 60.0041 76.5531 62.9449 73.6102C64.752 71.8073 64.6464 65.7547 66.2678 64.5493C67.8891 63.3439 71.6089 64.4416 73.416 62.6366C76.3525 59.698 75.9282 54.0803 72.5061 51.965Z" fill="#FFE8B6"/>
<path d="M10.7941 6.36079C10.9947 3.94357 13.8151 0.622787 16.9353 0.924676C20.0555 1.22657 21.1639 4.44812 20.862 6.16023C20.5601 7.87234 20.0555 9.48101 19.8529 10.7899C19.6502 12.0988 19.551 13.1058 22.1688 15.0185C24.7865 16.9311 46.2291 36.461 51.1628 42.4017C56.0964 48.3423 59.0161 52.0663 61.028 52.5688C63.042 53.0712 64.8533 52.8707 66.766 52.5688C68.5541 52.2859 72.7763 51.3549 74.6383 54.4371C74.1591 53.4343 73.4624 52.5561 72.5061 51.965C69.1663 49.9025 63.4452 53.4745 60.5256 50.5548C58.6741 48.7033 43.6704 32.5766 37.069 26.2918C30.4675 20.007 23.0892 14.3535 21.3644 12.8018C20.3574 11.8961 23.636 5.30734 20.862 2.53334C17.9191 -0.405324 13.8615 -0.734657 10.9208 2.20612C9.11366 4.01112 9.94755 7.03001 8.67877 7.87023C8.38322 8.06657 7.96099 8.23968 7.47966 8.41279C9.49155 8.29668 10.6337 8.28612 10.7941 6.36079Z" fill="#F2C994"/>
<path d="M75.0225 59.0119C74.7207 61.6297 69.787 63.5423 66.6668 62.5353C64.8238 61.94 63.042 62.2334 63.2447 64.1461C63.4452 66.0588 63.7471 68.8771 62.6409 71.0917C61.6339 73.1057 57.4053 74.1127 54.6883 72.2C52.1846 70.4372 51.7687 65.9574 52.877 63.8442C53.9853 61.731 54.0845 60.3208 51.4668 57.0992C50.141 55.4673 42.7922 47.0398 34.5547 38.3737C26.5303 29.9334 18.525 21.8479 16.8361 20.6551C13.4098 18.24 11.6301 19.2575 9.18333 19.8508C5.86044 20.6551 2.63889 18.3413 2.03511 16.8298C1.49678 15.4808 1.55378 12.3331 2.54811 10.6379C2.43411 10.7329 2.30955 10.8173 2.20611 10.9208C-0.734667 13.8594 -0.308223 18.696 3.04211 21.1597C6.46422 23.6761 11.5984 20.9591 13.6124 21.5629C16.359 22.3862 23.6064 30.4781 33.345 40.1871C42.4291 49.2438 49.9848 59.5481 50.7617 60.4221C52.3724 62.2334 47.6414 68.3746 52.1719 73.4096C54.9543 76.5003 60.0041 76.5531 62.9449 73.6102C64.7499 71.8073 64.6464 65.7548 66.2678 64.5493C67.887 63.3439 71.6089 64.4417 73.416 62.6367C74.594 61.4608 75.2062 59.8563 75.3287 58.2181C75.1914 58.273 75.0795 58.5179 75.0225 59.0119Z" fill="#D99E82"/>
</svg>
