<svg width="114" height="114" viewBox="0 0 114 114" fill="none" xmlns="http://www.w3.org/2000/svg">
<path d="M98.3067 59.6937C97.0799 59.6937 95.8889 59.8455 94.7487 60.1268C95.0093 58.9957 95.1413 57.8388 95.1421 56.678C95.1421 48.1897 88.2609 41.3085 79.7726 41.3085C76.674 41.3042 73.6472 42.241 71.0928 43.9949C68.2096 32.8863 58.1155 24.6841 46.1052 24.6841C31.8483 24.6841 20.2907 36.2418 20.2907 50.4987C9.57177 50.4987 0.882164 59.188 0.882164 69.9072C0.882164 80.626 9.57155 89.3157 20.2907 89.3157H98.3067C106.487 89.3157 113.118 82.6845 113.118 74.5046C113.118 66.3246 106.487 59.6937 98.3067 59.6937Z" fill="#C6EFFF"/>
</svg>
