<svg width="108" height="107" viewBox="0 0 108 107" fill="none" xmlns="http://www.w3.org/2000/svg">
<path d="M93.1327 56.0283C91.9704 56.0283 90.8421 56.1708 89.7619 56.4348C90.0088 55.3731 90.1339 54.2873 90.1346 53.1978C90.1346 45.2307 83.6156 38.772 75.5741 38.772C72.6386 38.768 69.771 39.6472 67.3511 41.2934C64.6196 30.867 55.0568 23.1684 43.6786 23.1684C30.1721 23.1684 19.2227 34.0164 19.2227 47.3979C9.06799 47.3979 0.835735 55.5537 0.835735 65.6146C0.835735 75.6753 9.06778 83.8314 19.2227 83.8314H93.1327C100.882 83.8314 107.164 77.6074 107.164 69.9297C107.164 62.2521 100.882 56.0283 93.1327 56.0283Z" fill="#93E1FF"/>
</svg>
