<svg width="853" height="99" viewBox="0 0 853 99" fill="none" xmlns="http://www.w3.org/2000/svg">
<path d="M0 22.6415V35.5594C7.48347 32.4274 29.9294 47.0218 44.8949 48C59.8604 48.9788 79 33.7979 89.7898 25.3819C100.58 16.9659 119.719 8.15759 134.685 9.33195C149.649 10.5063 162.659 22.2505 179.58 27.1434C196.5 32.0364 209.508 38.2992 224.473 35.5594C239.438 32.8197 256.236 28.905 269.368 27.1434C282.5 25.3819 315.036 45.8468 330 48C344.965 50.1526 353.536 50.1532 368.5 48C383.464 45.8468 423.535 35.9511 438.5 35.5594C453.465 35.1678 476.5 48 506.5 35.5594C527.739 26.7518 533.035 27.1434 548 25.3819C569.5 32.0364 569.5 32.0364 569.5 32.0364C569.5 32.0364 568.667 30.0793 583.632 26.7518C598.596 23.4242 622.035 15.3999 637 9.33194C651.964 3.26464 658.456 -0.8456 673.42 1.30759C688.386 3.46017 718.315 25.3819 743.5 35.5594C763.21 25.3819 773.036 15.3993 788 15.7909C802.965 16.182 793.14 16.9659 808.105 22.6415C823.07 28.3178 838.035 28.5133 845.518 32.0364L853 35.5594V98.9747H845.518C838.035 98.9747 823.07 98.9747 808.105 98.9747C793.14 98.9747 778.176 98.9747 763.21 98.9747C748.246 98.9747 733.281 98.9747 718.315 98.9747C703.351 98.9747 688.386 98.9747 673.42 98.9747C658.456 98.9747 643.491 98.9747 628.527 98.9747C613.562 98.9747 598.596 98.9747 583.632 98.9747C568.667 98.9747 553.701 98.9747 538.737 98.9747C523.772 98.9747 508.806 98.9747 493.842 98.9747C478.877 98.9747 463.913 98.9747 448.947 98.9747C433.982 98.9747 419.018 98.9747 404.053 98.9747C389.087 98.9747 374.123 98.9747 359.158 98.9747C344.194 98.9747 329.228 98.9747 314.263 98.9747C299.299 98.9747 284.333 98.9747 269.368 98.9747C254.404 98.9747 239.438 98.9747 224.473 98.9747C209.509 98.9747 194.544 98.9747 179.58 98.9747C164.614 98.9747 149.649 98.9747 134.685 98.9747C119.719 98.9747 104.754 98.9747 89.7898 98.9747C74.8243 98.9747 59.8604 98.9747 44.8949 98.9747C29.9294 98.9747 14.9655 98.9747 7.48199 98.9747H0V22.6415Z" fill="#E2C043"/>
</svg>
