<svg width="853" height="50" viewBox="0 0 853 50" fill="none" xmlns="http://www.w3.org/2000/svg">
<path opacity="0.9" d="M-8.58307e-06 32.5L24.5 23.3561C32.5 30.5978 43.5345 4.76194 58.5 8.28501C73.4655 11.8081 88.036 18.6587 103 16.8972C117.964 15.1356 119.719 15.5267 134.685 17.4843C149.649 19.4414 164.614 32.5 179.58 32.5C194.544 32.5 209.509 22.5734 224.473 17.4843C239.438 12.3959 254.404 3.78311 269.368 4.56642C284.333 5.34912 314.054 18.6587 329.018 23.3561C343.983 28.0535 355.554 33.2827 370.518 32.5C385.483 31.7167 401.553 25.1177 416.518 23.3561C431.483 21.5946 433.982 16.31 448.947 15.7228C463.913 15.1356 478.877 24.1394 493.842 23.3561C508.806 22.5734 523.772 11.2209 538.737 8.28501C553.701 5.34912 568.667 -0.522663 583.632 0.260036C598.596 1.04335 613.562 8.48053 628.527 13.178C643.491 17.8754 658.456 19.8331 673.42 17.0927C688.386 14.3523 703.351 6.91513 718.315 5.1536C733.281 3.39206 748.246 7.30618 763.21 11.8081C778.176 16.31 793.14 21.3985 808.105 21.7901C823.07 22.1818 838.035 17.8754 845.518 15.7228L853 13.5696V49.9747H845.518C838.035 49.9747 823.07 49.9747 808.105 49.9747C793.14 49.9747 778.176 49.9747 763.21 49.9747C748.246 49.9747 733.281 49.9747 718.315 49.9747C703.351 49.9747 688.386 49.9747 673.42 49.9747C658.456 49.9747 643.491 49.9747 628.527 49.9747C613.562 49.9747 598.596 49.9747 583.632 49.9747C568.667 49.9747 553.701 49.9747 538.737 49.9747C523.772 49.9747 508.806 49.9747 493.842 49.9747C478.877 49.9747 463.913 49.9747 448.947 49.9747C433.982 49.9747 419.018 49.9747 404.052 49.9747C389.087 49.9747 374.123 49.9747 359.158 49.9747C344.194 49.9747 329.228 49.9747 314.263 49.9747C299.299 49.9747 284.333 49.9747 269.368 49.9747C254.404 49.9747 239.438 49.9747 224.473 49.9747C209.509 49.9747 194.544 49.9747 179.58 49.9747C164.614 49.9747 149.649 49.9747 134.685 49.9747C119.719 49.9747 104.754 49.9747 89.7898 49.9747C74.8243 49.9747 59.8603 49.9747 44.8949 49.9747C29.9294 49.9747 14.9655 49.9747 7.48198 49.9747H-8.58307e-06V32.5Z" fill="#DBAB00"/>
</svg>
