<svg width="139" height="139" viewBox="0 0 139 139" fill="none" xmlns="http://www.w3.org/2000/svg">
<path d="M105.314 62.5066L137.914 34.0876C139.369 32.817 138.24 30.428 136.329 30.7537L134.949 30.9818C131.602 31.5405 128.462 32.9755 125.849 35.1409L88.7428 65.3843L105.314 62.5066Z" fill="#FBC21A"/>
<path d="M136.589 30.7212L105.705 54.0471H98.1036C98.1036 54.0471 118.541 38.7245 124.59 34.4459C129.65 30.8732 133.842 30.5257 136.589 30.7212Z" fill="#1A6CA2"/>
<path d="M87.1573 46.7496C87.1573 46.7496 71.5633 49.9857 45.7723 63.5273C23.4997 75.2337 23.0002 74.7559 23.0002 74.7559C23.0002 74.7559 8.02507 81.0761 8.18796 83.476C8.35086 85.8759 9.94718 90.198 12.51 90.6758C15.0728 91.1536 59.7374 87.0596 63.7337 86.3537C75.4184 84.2687 93.1083 79.4037 105.314 74.5713C117.52 69.7389 126.436 62.5174 128.836 54.9919C128.836 54.9919 130.312 51.1368 125.99 51.1368C121.668 51.1368 102.827 52.0273 102.827 52.0273C102.827 52.0273 93.7164 45.4682 87.1573 46.7496Z" fill="#CFD8DC"/>
<path d="M122.157 59.7809C122.157 59.7809 116.271 64.9934 110.505 67.5345C101.057 71.6936 74.1695 79.6101 65.4169 81.7602C58.7275 83.4109 45.1533 86.3103 38.6376 86.6904C30.0044 87.1791 26.6815 81.467 23.0001 74.7451C20.0138 69.2937 15.5506 58.847 13.4548 54.2752C13.2461 53.8209 12.8678 53.4664 12.4009 53.2878C11.934 53.1091 11.4157 53.1205 10.9571 53.3195L6.16812 55.372C5.38624 55.7086 4.90843 56.5231 5.01702 57.3701L8.36171 84.4316C8.36171 84.4316 8.83952 89.8722 12.5209 90.6758C16.2022 91.4794 45.4899 88.4388 55.2634 87.9501C65.0368 87.4614 90.2414 81.0218 105.325 74.5605C120.409 68.0991 123.156 63.9617 125.849 60.5736C125.838 60.5845 123.916 60.4216 122.157 59.7809Z" fill="#1A6CA2"/>
<path d="M24.3576 79.9576C24.3576 79.9576 23.402 77.8726 17.9505 79.9576C12.4991 82.0426 8.99156 83.1611 8.99156 83.1611L0.662418 88.8406C-0.282348 89.4813 0.260621 90.9581 1.40086 90.8278L5.82062 90.35C5.9579 90.3382 6.09112 90.2975 6.21156 90.2305C7.89476 89.3292 20.9152 82.3466 24.3576 79.9576Z" fill="#FBC21A"/>
<path d="M100.547 52.4073C100.547 52.4073 92.2613 57.7067 88.2976 62.1482C88.2976 62.1482 86.7338 63.1038 85.4199 61.1926C84.095 59.2705 81.467 53.8842 83.5086 52.049C85.5502 50.2138 89.1229 47.6075 91.1645 48.0636C95.8991 49.117 100.547 52.4073 100.547 52.4073Z" fill="#1A6CA2"/>
<path d="M125.817 60.6822C125.643 60.6713 120.735 60.5302 119.964 56.6099C119.225 52.8417 121.082 51.3431 121.082 51.3431C121.082 51.3431 128.738 50.3766 129.748 52.4399C131.181 55.4154 125.817 60.6822 125.817 60.6822Z" fill="#64878E"/>
<path d="M74.5713 65.3843C76.7064 65.3843 78.4373 63.6535 78.4373 61.5184C78.4373 59.3833 76.7064 57.6524 74.5713 57.6524C72.4362 57.6524 70.7054 59.3833 70.7054 61.5184C70.7054 63.6535 72.4362 65.3843 74.5713 65.3843Z" fill="#1A6CA2"/>
<path d="M62.1265 68.9462C63.9377 68.9462 65.406 67.4779 65.406 65.6666C65.406 63.8554 63.9377 62.3871 62.1265 62.3871C60.3153 62.3871 58.847 63.8554 58.847 65.6666C58.847 67.4779 60.3153 68.9462 62.1265 68.9462Z" fill="#1A6CA2"/>
<path d="M51.3974 71.7262C52.9088 71.7262 54.134 70.501 54.134 68.9896C54.134 67.4782 52.9088 66.253 51.3974 66.253C49.8861 66.253 48.6609 67.4782 48.6609 68.9896C48.6609 70.501 49.8861 71.7262 51.3974 71.7262Z" fill="#1A6CA2"/>
<path d="M88.0261 80.3377C88.0261 80.3377 86.8533 74.3324 78.4373 75.1469C70.0213 75.9613 52.668 82.4009 52.668 82.4009L12.2928 110.462C11.0657 111.309 11.2069 113.166 12.5534 113.817C15.0726 115.052 17.8532 115.658 20.6577 115.585C23.4622 115.511 26.2072 114.759 28.6579 113.394L88.0261 80.3377Z" fill="#1A6CA2"/>
<mask id="mask0_58_29" style="mask-type:luminance" maskUnits="userSpaceOnUse" x="11" y="75" width="78" height="41">
<path d="M88.0261 80.3377C88.0261 80.3377 86.8533 74.3324 78.4373 75.1469C70.0213 75.9613 52.668 82.4009 52.668 82.4009L12.2928 110.462C11.0657 111.309 11.2069 113.166 12.5534 113.817C15.0726 115.052 17.8532 115.658 20.6577 115.585C23.4622 115.511 26.2072 114.759 28.6579 113.394L88.0261 80.3377Z" fill="white"/>
</mask>
<g mask="url(#mask0_58_29)">
<path d="M76.0156 73.6591L14.8448 117.281H23.5323L93.3906 79.0345L88.7428 73.6591H76.0156Z" fill="#FBC21A"/>
</g>
</svg>
