<svg width="70" height="72" viewBox="0 0 70 72" fill="none" xmlns="http://www.w3.org/2000/svg">
<g filter="url(#filter0_d_13_64)">
<path d="M5.88359 46.1234C5.59374 45.4398 5.31483 44.7562 5.0414 44.0727C2.97968 38.8719 5.5664 34.1797 7.87421 29.5859L11.2211 22.9359C11.8937 21.5961 12.9273 20.4695 14.1961 19.682L23.8211 13.7102L33.3312 3.87734C33.9216 3.26482 34.675 2.83406 35.5023 2.63594L41.9773 1.07188C45.1109 0.322657 46.4562 0.44297 47.468 1.88125C50.9734 6.85781 53.3195 10.9539 56.4422 15.9141C58.143 18.6156 62.0695 24.8227 62.3156 25.2328C63.0703 26.5016 62.7641 27.5625 62.7367 29.0172C62.6711 32.3695 63.2617 35.7383 64.4867 38.8609C64.8531 39.7906 65.2742 40.7094 65.4656 41.6883C65.6406 42.5687 65.4055 48.1633 65.225 50.0555C65.0773 51.5922 61.4461 57.3289 60.1445 58.0234C58.7117 58.7891 48.0914 62.6938 45.7453 63.3609C43.3992 64.0281 33.2273 61.7039 27.9445 60.8945C24.6797 60.3969 21.4094 59.8938 18.1445 59.3961C15.3117 58.9641 12.4953 59.2922 10.9094 56.432C9.04452 53.0852 7.37109 49.6453 5.88359 46.1234Z" fill="url(#paint0_linear_13_64)"/>
</g>
<defs>
<filter id="filter0_d_13_64" x="0.289246" y="0.618652" width="69.238" height="70.8611" filterUnits="userSpaceOnUse" color-interpolation-filters="sRGB">
<feFlood flood-opacity="0" result="BackgroundImageFix"/>
<feColorMatrix in="SourceAlpha" type="matrix" values="0 0 0 0 0 0 0 0 0 0 0 0 0 0 0 0 0 0 127 0" result="hardAlpha"/>
<feOffset dy="4"/>
<feGaussianBlur stdDeviation="2"/>
<feComposite in2="hardAlpha" operator="out"/>
<feColorMatrix type="matrix" values="0 0 0 0 0 0 0 0 0 0 0 0 0 0 0 0 0 0 0.25 0"/>
<feBlend mode="normal" in2="BackgroundImageFix" result="effect1_dropShadow_13_64"/>
<feBlend mode="normal" in="SourceGraphic" in2="effect1_dropShadow_13_64" result="shape"/>
</filter>
<linearGradient id="paint0_linear_13_64" x1="48.915" y1="8.00625" x2="23.7216" y2="72.0147" gradientUnits="userSpaceOnUse">
<stop stop-color="#9E958E"/>
<stop offset="0.46" stop-color="#8E8884"/>
<stop offset="1" stop-color="#757575"/>
</linearGradient>
</defs>
</svg>
