<svg width="111" height="111" viewBox="0 0 111 111" fill="none" xmlns="http://www.w3.org/2000/svg">
<path d="M22.3008 65.4655C34.1428 65.4655 43.7427 55.8657 43.7427 44.0236C43.7427 32.1816 34.1428 22.5818 22.3008 22.5818C10.4588 22.5818 0.858948 32.1816 0.858948 44.0236C0.858948 55.8657 10.4588 65.4655 22.3008 65.4655Z" fill="#FFD60D"/>
<path d="M95.7197 67.0811C94.5252 67.0811 93.3655 67.2289 92.2553 67.5027C92.5091 66.4014 92.6376 65.275 92.6384 64.1448C92.6384 55.8798 85.9383 49.1797 77.6733 49.1797C74.6563 49.1755 71.7091 50.0876 69.2219 51.7954C66.4146 40.9794 56.5862 32.9928 44.8919 32.9928C31.0102 32.9928 19.7567 44.2463 19.7567 58.128C9.31988 58.128 0.858948 66.5887 0.858948 77.0258C0.858948 87.4626 9.31966 95.9235 19.7567 95.9235H95.7197C103.684 95.9235 110.141 89.4669 110.141 81.5022C110.141 73.5375 103.684 67.0811 95.7197 67.0811Z" fill="#B0E9FF"/>
</svg>
