<svg width="853" height="24" viewBox="0 0 853 24" fill="none" xmlns="http://www.w3.org/2000/svg">
<path d="M0 -1.90735e-06L5.68667 4C11.3733 8 22.7467 16 34.12 16C45.4933 16 56.8667 8 68.24 8C79.6133 8 90.9867 16 102.36 16C113.733 16 125.107 8 136.48 8C147.853 8 159.227 16 170.6 16C181.973 16 193.347 8 204.72 8C216.093 8 227.467 16 238.84 16C250.213 16 261.587 8 272.96 8C284.333 8 295.707 16 307.08 16C318.453 16 329.827 8 341.2 8C352.573 8 363.947 16 375.32 16C386.693 16 398.067 8 409.44 8C420.813 8 432.187 16 443.56 16C454.933 16 466.307 8 477.68 8C489.053 8 500.427 16 511.8 16C523.173 16 534.547 8 545.92 8C557.293 8 568.667 16 580.04 16C591.413 16 602.787 8 614.16 8C625.533 8 636.907 16 648.28 16C659.653 16 671.027 8 682.4 8C693.773 8 705.147 16 716.52 16C727.893 16 739.267 8 750.64 8C762.013 8 773.387 16 784.76 16C796.133 16 807.507 8 818.88 8C830.253 8 841.627 16 847.313 20L853 24V-1.90735e-06H847.313C841.627 -1.90735e-06 830.253 -1.90735e-06 818.88 -1.90735e-06C807.507 -1.90735e-06 796.133 -1.90735e-06 784.76 -1.90735e-06C773.387 -1.90735e-06 762.013 -1.90735e-06 750.64 -1.90735e-06C739.267 -1.90735e-06 727.893 -1.90735e-06 716.52 -1.90735e-06C705.147 -1.90735e-06 693.773 -1.90735e-06 682.4 -1.90735e-06C671.027 -1.90735e-06 659.653 -1.90735e-06 648.28 -1.90735e-06C636.907 -1.90735e-06 625.533 -1.90735e-06 614.16 -1.90735e-06C602.787 -1.90735e-06 591.413 -1.90735e-06 580.04 -1.90735e-06C568.667 -1.90735e-06 557.293 -1.90735e-06 545.92 -1.90735e-06C534.547 -1.90735e-06 523.173 -1.90735e-06 511.8 -1.90735e-06C500.427 -1.90735e-06 489.053 -1.90735e-06 477.68 -1.90735e-06C466.307 -1.90735e-06 454.933 -1.90735e-06 443.56 -1.90735e-06C432.187 -1.90735e-06 420.813 -1.90735e-06 409.44 -1.90735e-06C398.067 -1.90735e-06 386.693 -1.90735e-06 375.32 -1.90735e-06C363.947 -1.90735e-06 352.573 -1.90735e-06 341.2 -1.90735e-06C329.827 -1.90735e-06 318.453 -1.90735e-06 307.08 -1.90735e-06C295.707 -1.90735e-06 284.333 -1.90735e-06 272.96 -1.90735e-06C261.587 -1.90735e-06 250.213 -1.90735e-06 238.84 -1.90735e-06C227.467 -1.90735e-06 216.093 -1.90735e-06 204.72 -1.90735e-06C193.347 -1.90735e-06 181.973 -1.90735e-06 170.6 -1.90735e-06C159.227 -1.90735e-06 147.853 -1.90735e-06 136.48 -1.90735e-06C125.107 -1.90735e-06 113.733 -1.90735e-06 102.36 -1.90735e-06C90.9867 -1.90735e-06 79.6133 -1.90735e-06 68.24 -1.90735e-06C56.8667 -1.90735e-06 45.4933 -1.90735e-06 34.12 -1.90735e-06C22.7467 -1.90735e-06 11.3733 -1.90735e-06 5.68667 -1.90735e-06H0Z" fill="#FCAC00"/>
</svg>
